# xmcd
#
# Track frame offsets:
#	150
#	9073
#	24808
#	40415
#	53699
#	63380
#	78431
#	110981
#	122703
#	135689
#
# Disc length: 2065 seconds
#
# Revision: 2
# Processed by: cddbd v1.5.2PL0 Copyright (c) Steve Scherf et al.
# Submitted via: audiograbber 1.83.01
#
DISCID=7a080f0a
DTITLE=David Allan Coe - Human Emotions - Spectrum VII
DYEAR=1995
DGENRE=Country
TTITLE0=Rollin' With The Punches
TTITLE1=On My Feet Again
TTITLE2=Fall In Love With You
TTITLE3=What Can I Do
TTITLE4=Sudden Death
TTITLE5=Fairytale Morning
TTITLE6=Seven Mile Bridge
TTITLE7=Now's The Time
TTITLE8=Love Is Just A Porpoise
TTITLE9=Please Come To Boston
EXTD=
EXTT0=
EXTT1=
EXTT2=
EXTT3=
EXTT4=
EXTT5=
EXTT6=
EXTT7=
EXTT8=
EXTT9=
PLAYORDER=
